P1 8 16
0101010110101010010101011010101001010101101010100101010110101010
0101010110101010010101011010101001010101101010100101010110101010
