P1 26 22
11111111111111111111111111
11111000111111110111110111
11110000011111111011101111
11100000001111110000000111
11001000100111100100010011
11000000000111000000000001
11110111011111010000000101
11101000101111010111110101
11010111010111111001001111
11111111111111111111111111
11111111111111111111111111
11111111111111111111111111
11101111101111111100011111
11110111011111110000000111
11100000001111100000000011
11101000101111000000000001
11001000100111000100010001
10000000000011000000000001
10101111101011111001001111
11110111011111110011100111
11111010111111111001001111
11111111111111111111111111





















